# xmcd CD database file
#
# Track frame offsets:
#	150
#	21405
#	39592
#	56337
#	71848
#	100794
#	122620
#	166171
#	186156
#	203252
#	248194
#	271018
#
# Disc length: 4112 seconds
#
# Revision: 0
# Processed by: cddbd v1.5.1PL0 Copyright (c) Steve Scherf et al.
# Submitted via: CDex 1.51
#
DISCID=9a100e0c
DTITLE=日の出木工所 - マルチグルーヴ
DYEAR=1900
DGENRE=未分類 (日本)
TTITLE0=夢見るロボット(multi grove mix)
TTITLE1=はじめての PRETEND TO BE OUT
TTITLE2=暮れゆく陽 (69-trip mix)
TTITLE3=Last Regrets (Right Here Right Now mix)
TTITLE4=憂い (Invisible Force 2 Force mix edit)
TTITLE5=閉ざされた空間
TTITLE6=永遠 (retroflex remixxx)
TTITLE7=顔のない月
TTITLE8=瑠璃子 -NO FUTURE-
TTITLE9=Drop of Stalights
TTITLE10=顔のない月メインテーマ (カオナシMIX)
TTITLE11=青空 - 戦争の終わった世界で -
EXTD=
EXTT0=
EXTT1=
EXTT2=
EXTT3=
EXTT4=
EXTT5=
EXTT6=
EXTT7=
EXTT8=
EXTT9=
EXTT10=
EXTT11=
PLAYORDER=
